G04 #@! TF.GenerationSoftware,KiCad,Pcbnew,(5.0.0)*
G04 #@! TF.CreationDate,2021-01-29T15:29:07+01:00*
G04 #@! TF.ProjectId,Programmateur_ATtiny85_02,50726F6772616D6D61746575725F4154,rev?*
G04 #@! TF.SameCoordinates,Original*
G04 #@! TF.FileFunction,Copper,L1,Top,Signal*
G04 #@! TF.FilePolarity,Positive*
%FSLAX46Y46*%
G04 Gerber Fmt 4.6, Leading zero omitted, Abs format (unit mm)*
G04 Created by KiCad (PCBNEW (5.0.0)) date 01/29/21 15:29:07*
%MOMM*%
%LPD*%
G01*
G04 APERTURE LIST*
G04 #@! TA.AperFunction,ComponentPad*
%ADD10C,0.800000*%
G04 #@! TD*
G04 #@! TA.AperFunction,ComponentPad*
%ADD11C,6.000000*%
G04 #@! TD*
G04 #@! TA.AperFunction,ComponentPad*
%ADD12C,2.000000*%
G04 #@! TD*
G04 #@! TA.AperFunction,ComponentPad*
%ADD13O,3.000000X3.900000*%
G04 #@! TD*
G04 #@! TA.AperFunction,ViaPad*
%ADD14C,1.200000*%
G04 #@! TD*
G04 #@! TA.AperFunction,ViaPad*
%ADD15C,1.000000*%
G04 #@! TD*
G04 #@! TA.AperFunction,ViaPad*
%ADD16C,0.800000*%
G04 #@! TD*
G04 #@! TA.AperFunction,Conductor*
%ADD17C,1.200000*%
G04 #@! TD*
G04 #@! TA.AperFunction,Conductor*
%ADD18C,0.800000*%
G04 #@! TD*
G04 APERTURE END LIST*
D10*
G04 #@! TO.P,REF\002A\002A,1*
G04 #@! TO.N,N/C*
X99590990Y-102409010D03*
X98000000Y-101750000D03*
X96409010Y-102409010D03*
X95750000Y-104000000D03*
X96409010Y-105590990D03*
X98000000Y-106250000D03*
X99590990Y-105590990D03*
X100250000Y-104000000D03*
D11*
X98000000Y-104000000D03*
G04 #@! TD*
G04 #@! TO.P,REF\002A\002A,1*
G04 #@! TO.N,N/C*
X62000000Y-104000000D03*
D10*
X64250000Y-104000000D03*
X63590990Y-105590990D03*
X62000000Y-106250000D03*
X60409010Y-105590990D03*
X59750000Y-104000000D03*
X60409010Y-102409010D03*
X62000000Y-101750000D03*
X63590990Y-102409010D03*
G04 #@! TD*
G04 #@! TO.P,REF\002A\002A,1*
G04 #@! TO.N,N/C*
X99590990Y-40409010D03*
X98000000Y-39750000D03*
X96409010Y-40409010D03*
X95750000Y-42000000D03*
X96409010Y-43590990D03*
X98000000Y-44250000D03*
X99590990Y-43590990D03*
X100250000Y-42000000D03*
D11*
X98000000Y-42000000D03*
G04 #@! TD*
G04 #@! TO.P,REF\002A\002A,1*
G04 #@! TO.N,N/C*
X62000000Y-42000000D03*
D10*
X64250000Y-42000000D03*
X63590990Y-43590990D03*
X62000000Y-44250000D03*
X60409010Y-43590990D03*
X59750000Y-42000000D03*
X60409010Y-40409010D03*
X62000000Y-39750000D03*
X63590990Y-40409010D03*
G04 #@! TD*
G04 #@! TO.P,REF\002A\002A,1*
G04 #@! TO.N,N/C*
X136590990Y-102409010D03*
X135000000Y-101750000D03*
X133409010Y-102409010D03*
X132750000Y-104000000D03*
X133409010Y-105590990D03*
X135000000Y-106250000D03*
X136590990Y-105590990D03*
X137250000Y-104000000D03*
D11*
X135000000Y-104000000D03*
G04 #@! TD*
G04 #@! TO.P,REF\002A\002A,1*
G04 #@! TO.N,N/C*
X135000000Y-42000000D03*
D10*
X137250000Y-42000000D03*
X136590990Y-43590990D03*
X135000000Y-44250000D03*
X133409010Y-43590990D03*
X132750000Y-42000000D03*
X133409010Y-40409010D03*
X135000000Y-39750000D03*
X136590990Y-40409010D03*
G04 #@! TD*
D11*
G04 #@! TO.P,REF\002A\002A,1*
G04 #@! TO.N,N/C*
X28000000Y-104000000D03*
D10*
X30250000Y-104000000D03*
X29590990Y-105590990D03*
X28000000Y-106250000D03*
X26409010Y-105590990D03*
X25750000Y-104000000D03*
X26409010Y-102409010D03*
X28000000Y-101750000D03*
X29590990Y-102409010D03*
G04 #@! TD*
D12*
G04 #@! TO.P,R1,2*
G04 #@! TO.N,PB2*
X95160000Y-94615000D03*
G04 #@! TO.P,R1,1*
G04 #@! TO.N,Net-(D1-Pad2)*
X85000000Y-94615000D03*
G04 #@! TD*
G04 #@! TO.P,R2,1*
G04 #@! TO.N,Net-(R2-Pad1)*
X91186000Y-63000000D03*
G04 #@! TO.P,R2,2*
G04 #@! TO.N,Net-(D2-Pad2)*
X91186000Y-52840000D03*
G04 #@! TD*
G04 #@! TO.P,R3,2*
G04 #@! TO.N,Net-(D3-Pad2)*
X95160000Y-80010000D03*
G04 #@! TO.P,R3,1*
G04 #@! TO.N,+5V*
X85000000Y-80010000D03*
G04 #@! TD*
G04 #@! TO.P,R4,1*
G04 #@! TO.N,+5V*
X82931000Y-63000000D03*
G04 #@! TO.P,R4,2*
G04 #@! TO.N,Net-(D4-Pad2)*
X82931000Y-52840000D03*
G04 #@! TD*
G04 #@! TO.P,R5,1*
G04 #@! TO.N,+5V*
X95123000Y-87122000D03*
G04 #@! TO.P,R5,2*
G04 #@! TO.N,Net-(D5-Pad2)*
X84963000Y-87122000D03*
G04 #@! TD*
D13*
G04 #@! TO.P,SW2,1*
G04 #@! TO.N,Net-(C2-Pad1)*
X116332000Y-71882000D03*
G04 #@! TO.P,SW2,2*
G04 #@! TO.N,+5V*
X121332000Y-71882000D03*
G04 #@! TD*
D10*
G04 #@! TO.P,REF\002A\002A,1*
G04 #@! TO.N,N/C*
X29590990Y-40409010D03*
X28000000Y-39750000D03*
X26409010Y-40409010D03*
X25750000Y-42000000D03*
X26409010Y-43590990D03*
X28000000Y-44250000D03*
X29590990Y-43590990D03*
X30250000Y-42000000D03*
D11*
X28000000Y-42000000D03*
G04 #@! TD*
D14*
G04 #@! TO.N,Net-(C2-Pad1)*
X95504000Y-90551000D03*
X110998000Y-75057000D03*
D15*
G04 #@! TO.N,Net-(D1-Pad2)*
X81915000Y-74041000D03*
D14*
G04 #@! TO.N,Net-(D3-Pad2)*
X67564000Y-72009000D03*
X75819000Y-76073000D03*
X81026000Y-76073000D03*
X86741000Y-77597000D03*
G04 #@! TO.N,Net-(D5-Pad2)*
X64643000Y-87122000D03*
G04 #@! TO.N,+5V*
X78740000Y-69723000D03*
X98425000Y-90424000D03*
X121285000Y-78613000D03*
X107220000Y-51580000D03*
X117330000Y-51580000D03*
X125603000Y-71882000D03*
G04 #@! TO.N,PB2*
X121793000Y-88900000D03*
G04 #@! TO.N,Net-(R2-Pad1)*
X102870000Y-64770000D03*
D16*
X111379000Y-64770000D03*
X119888000Y-64770000D03*
G04 #@! TO.N,PB1*
X36957000Y-75819000D03*
X97155000Y-49022000D03*
G04 #@! TO.N,PB0*
X39497000Y-75946000D03*
X114808000Y-49022000D03*
G04 #@! TO.N,PB5*
X43688000Y-76073000D03*
X107188000Y-63119000D03*
X98425000Y-78867000D03*
G04 #@! TD*
D17*
G04 #@! TO.N,Net-(C2-Pad1)*
X98933000Y-87122000D02*
X95631000Y-90424000D01*
D18*
X99060000Y-86995000D02*
X98679000Y-87376000D01*
D17*
X110998000Y-75057000D02*
X99060000Y-86995000D01*
G04 #@! TO.N,Net-(D1-Pad2)*
X86414213Y-94615000D02*
X88900000Y-92129213D01*
X85000000Y-94615000D02*
X86414213Y-94615000D01*
X88900000Y-92129213D02*
X88900000Y-77470000D01*
X88900000Y-77470000D02*
X86614000Y-75184000D01*
X83058000Y-75184000D02*
X81915000Y-74041000D01*
X86614000Y-75184000D02*
X83058000Y-75184000D01*
G04 #@! TO.N,Net-(D3-Pad2)*
X67564000Y-72009000D02*
X67963999Y-72408999D01*
X67963999Y-72408999D02*
X71628000Y-76073000D01*
X71628000Y-76073000D02*
X75819000Y-76073000D01*
X81026000Y-76073000D02*
X81425999Y-76472999D01*
X81425999Y-76472999D02*
X82550000Y-77597000D01*
X82550000Y-77597000D02*
X86741000Y-77597000D01*
G04 #@! TO.N,Net-(D5-Pad2)*
X65208685Y-87122000D02*
X84963000Y-87122000D01*
X64643000Y-87122000D02*
X65208685Y-87122000D01*
G04 #@! TO.N,+5V*
X78740000Y-74422000D02*
X78740000Y-77724000D01*
X78740000Y-74422000D02*
X78740000Y-69723000D01*
D18*
X78740000Y-75164213D02*
X78740000Y-74422000D01*
D17*
X81026000Y-80010000D02*
X85000000Y-80010000D01*
X78740000Y-77724000D02*
X81026000Y-80010000D01*
X118802685Y-50673000D02*
X120015000Y-50673000D01*
X107220000Y-50705000D02*
X107220000Y-51580000D01*
D18*
X107188000Y-50673000D02*
X107220000Y-50705000D01*
D17*
X117330000Y-51580000D02*
X117330000Y-50782000D01*
X120015000Y-50673000D02*
X117221000Y-50673000D01*
D18*
X117330000Y-50782000D02*
X117221000Y-50673000D01*
D17*
X117221000Y-50673000D02*
X107188000Y-50673000D01*
X101727000Y-87122000D02*
X98425000Y-90424000D01*
X121285000Y-78613000D02*
X110236000Y-78613000D01*
X110236000Y-78613000D02*
X101727000Y-87122000D01*
X128016000Y-50673000D02*
X120015000Y-50673000D01*
X128016000Y-69596000D02*
X128016000Y-50673000D01*
X125730000Y-71882000D02*
X128016000Y-69596000D01*
D18*
X125603000Y-71882000D02*
X125730000Y-71882000D01*
G04 #@! TO.N,PB2*
X121793000Y-88900000D02*
X121793000Y-88900000D01*
D17*
X102289213Y-88900000D02*
X121793000Y-88900000D01*
X96574213Y-94615000D02*
X102289213Y-88900000D01*
X95160000Y-94615000D02*
X96574213Y-94615000D01*
G04 #@! TO.N,Net-(R2-Pad1)*
X91186000Y-63000000D02*
X92956000Y-64770000D01*
X92956000Y-64770000D02*
X102870000Y-64770000D01*
D18*
X111379000Y-64770000D02*
X119888000Y-64770000D01*
G04 #@! TO.N,PB1*
X81788000Y-49022000D02*
X97155000Y-49022000D01*
X80078001Y-50731999D02*
X81788000Y-49022000D01*
X80078001Y-54610000D02*
X80078001Y-50731999D01*
X80078001Y-54610000D02*
X80078001Y-53324997D01*
X74998001Y-62865000D02*
X80078001Y-57785000D01*
X37338000Y-62865000D02*
X74998001Y-62865000D01*
X80078001Y-57785000D02*
X80078001Y-54610000D01*
X34544000Y-65659000D02*
X37338000Y-62865000D01*
X34544000Y-73406000D02*
X34544000Y-65659000D01*
X36957000Y-75819000D02*
X34544000Y-73406000D01*
G04 #@! TO.N,PB0*
X113665000Y-49022000D02*
X114681000Y-49022000D01*
X112649000Y-49022000D02*
X114808000Y-49022000D01*
X112649000Y-49022000D02*
X113665000Y-49022000D01*
X102108000Y-49022000D02*
X112649000Y-49022000D01*
X100584000Y-50546000D02*
X102108000Y-49022000D01*
X87249000Y-50546000D02*
X100584000Y-50546000D01*
X86868000Y-50927000D02*
X87249000Y-50546000D01*
X39497000Y-75946000D02*
X43561000Y-71882000D01*
X43561000Y-71882000D02*
X43561000Y-66675000D01*
X43561000Y-66675000D02*
X44958000Y-65278000D01*
X85852000Y-65278000D02*
X86868000Y-64262000D01*
X86868000Y-64262000D02*
X86868000Y-50927000D01*
X44958000Y-65278000D02*
X85852000Y-65278000D01*
G04 #@! TO.N,PB5*
X103886000Y-67437000D02*
X107188000Y-64135000D01*
X107188000Y-64135000D02*
X107188000Y-63119000D01*
X43688000Y-76073000D02*
X45593000Y-74168000D01*
X45593000Y-74168000D02*
X45593000Y-67437000D01*
X95758000Y-76200000D02*
X95758000Y-67437000D01*
X98425000Y-78867000D02*
X95758000Y-76200000D01*
X45593000Y-67437000D02*
X95758000Y-67437000D01*
X95758000Y-67437000D02*
X103886000Y-67437000D01*
G04 #@! TD*
M02*
