G04 #@! TF.GenerationSoftware,KiCad,Pcbnew,(5.0.0)*
G04 #@! TF.CreationDate,2021-01-29T15:29:07+01:00*
G04 #@! TF.ProjectId,Programmateur_ATtiny85_02,50726F6772616D6D61746575725F4154,rev?*
G04 #@! TF.SameCoordinates,Original*
G04 #@! TF.FileFunction,Soldermask,Top*
G04 #@! TF.FilePolarity,Negative*
%FSLAX46Y46*%
G04 Gerber Fmt 4.6, Leading zero omitted, Abs format (unit mm)*
G04 Created by KiCad (PCBNEW (5.0.0)) date 01/29/21 15:29:07*
%MOMM*%
%LPD*%
G01*
G04 APERTURE LIST*
%ADD10C,1.200000*%
%ADD11C,6.400000*%
%ADD12R,2.000000X2.000000*%
%ADD13C,2.000000*%
%ADD14R,2.200000X2.200000*%
%ADD15C,2.200000*%
%ADD16R,2.000000X2.200000*%
%ADD17O,2.400000X4.400000*%
%ADD18R,2.400000X4.400000*%
%ADD19C,2.400000*%
%ADD20O,3.400000X4.300000*%
%ADD21O,2.200000X2.400000*%
%ADD22R,2.200000X2.400000*%
%ADD23R,2.200000X2.300000*%
%ADD24C,2.300000*%
G04 APERTURE END LIST*
D10*
G04 #@! TO.C,REF\002A\002A*
X99590990Y-102409010D03*
X98000000Y-101750000D03*
X96409010Y-102409010D03*
X95750000Y-104000000D03*
X96409010Y-105590990D03*
X98000000Y-106250000D03*
X99590990Y-105590990D03*
X100250000Y-104000000D03*
D11*
X98000000Y-104000000D03*
G04 #@! TD*
G04 #@! TO.C,REF\002A\002A*
X62000000Y-104000000D03*
D10*
X64250000Y-104000000D03*
X63590990Y-105590990D03*
X62000000Y-106250000D03*
X60409010Y-105590990D03*
X59750000Y-104000000D03*
X60409010Y-102409010D03*
X62000000Y-101750000D03*
X63590990Y-102409010D03*
G04 #@! TD*
G04 #@! TO.C,REF\002A\002A*
X99590990Y-40409010D03*
X98000000Y-39750000D03*
X96409010Y-40409010D03*
X95750000Y-42000000D03*
X96409010Y-43590990D03*
X98000000Y-44250000D03*
X99590990Y-43590990D03*
X100250000Y-42000000D03*
D11*
X98000000Y-42000000D03*
G04 #@! TD*
G04 #@! TO.C,REF\002A\002A*
X62000000Y-42000000D03*
D10*
X64250000Y-42000000D03*
X63590990Y-43590990D03*
X62000000Y-44250000D03*
X60409010Y-43590990D03*
X59750000Y-42000000D03*
X60409010Y-40409010D03*
X62000000Y-39750000D03*
X63590990Y-40409010D03*
G04 #@! TD*
G04 #@! TO.C,REF\002A\002A*
X136590990Y-102409010D03*
X135000000Y-101750000D03*
X133409010Y-102409010D03*
X132750000Y-104000000D03*
X133409010Y-105590990D03*
X135000000Y-106250000D03*
X136590990Y-105590990D03*
X137250000Y-104000000D03*
D11*
X135000000Y-104000000D03*
G04 #@! TD*
G04 #@! TO.C,REF\002A\002A*
X135000000Y-42000000D03*
D10*
X137250000Y-42000000D03*
X136590990Y-43590990D03*
X135000000Y-44250000D03*
X133409010Y-43590990D03*
X132750000Y-42000000D03*
X133409010Y-40409010D03*
X135000000Y-39750000D03*
X136590990Y-40409010D03*
G04 #@! TD*
D11*
G04 #@! TO.C,REF\002A\002A*
X28000000Y-104000000D03*
D10*
X30250000Y-104000000D03*
X29590990Y-105590990D03*
X28000000Y-106250000D03*
X26409010Y-105590990D03*
X25750000Y-104000000D03*
X26409010Y-102409010D03*
X28000000Y-101750000D03*
X29590990Y-102409010D03*
G04 #@! TD*
D12*
G04 #@! TO.C,C1*
X72390000Y-72000000D03*
D13*
X74890000Y-72000000D03*
G04 #@! TD*
G04 #@! TO.C,C2*
X80391000Y-89154000D03*
X80391000Y-84154000D03*
G04 #@! TD*
D14*
G04 #@! TO.C,D1*
X84582000Y-72000000D03*
D15*
X82042000Y-72000000D03*
G04 #@! TD*
G04 #@! TO.C,D2*
X98806000Y-72000000D03*
D14*
X101346000Y-72000000D03*
G04 #@! TD*
G04 #@! TO.C,D3*
X61976000Y-72000000D03*
D15*
X64516000Y-72000000D03*
G04 #@! TD*
G04 #@! TO.C,D4*
X93091000Y-72000000D03*
D14*
X90551000Y-72000000D03*
G04 #@! TD*
D16*
G04 #@! TO.C,D5*
X40000000Y-72000000D03*
D15*
X37460000Y-72000000D03*
G04 #@! TD*
D17*
G04 #@! TO.C,J1*
X45000000Y-58000000D03*
X50000000Y-58000000D03*
X40000000Y-58000000D03*
D18*
X35000000Y-58000000D03*
G04 #@! TD*
G04 #@! TO.C,J2*
X58293000Y-58000000D03*
D17*
X63293000Y-58000000D03*
X73293000Y-58000000D03*
X68293000Y-58000000D03*
G04 #@! TD*
D14*
G04 #@! TO.C,J3*
X53848000Y-72000000D03*
D15*
X51308000Y-72000000D03*
X48768000Y-72000000D03*
G04 #@! TD*
D19*
G04 #@! TO.C,R1*
X95160000Y-94615000D03*
X85000000Y-94615000D03*
G04 #@! TD*
G04 #@! TO.C,R2*
X91186000Y-63000000D03*
X91186000Y-52840000D03*
G04 #@! TD*
G04 #@! TO.C,R3*
X95160000Y-80010000D03*
X85000000Y-80010000D03*
G04 #@! TD*
G04 #@! TO.C,R4*
X82931000Y-63000000D03*
X82931000Y-52840000D03*
G04 #@! TD*
G04 #@! TO.C,R5*
X95123000Y-87122000D03*
X84963000Y-87122000D03*
G04 #@! TD*
D20*
G04 #@! TO.C,SW2*
X116332000Y-71882000D03*
X121332000Y-71882000D03*
G04 #@! TD*
D21*
G04 #@! TO.C,U1*
X107220000Y-53380000D03*
X114840000Y-61000000D03*
X109760000Y-53380000D03*
X112300000Y-61000000D03*
X112300000Y-53380000D03*
X109760000Y-61000000D03*
X114840000Y-53380000D03*
D22*
X107220000Y-61000000D03*
G04 #@! TD*
D21*
G04 #@! TO.C,U2*
X117380000Y-61000000D03*
X125000000Y-53380000D03*
X119920000Y-61000000D03*
X122460000Y-53380000D03*
X122460000Y-61000000D03*
X119920000Y-53380000D03*
X125000000Y-61000000D03*
X117380000Y-53380000D03*
G04 #@! TD*
D23*
G04 #@! TO.C,U3*
X72517000Y-78867000D03*
D24*
X39497000Y-94107000D03*
X69977000Y-78867000D03*
X42037000Y-94107000D03*
X67437000Y-78867000D03*
X44577000Y-94107000D03*
X64897000Y-78867000D03*
X47117000Y-94107000D03*
X62357000Y-78867000D03*
X49657000Y-94107000D03*
X59817000Y-78867000D03*
X52197000Y-94107000D03*
X57277000Y-78867000D03*
X54737000Y-94107000D03*
X54737000Y-78867000D03*
X57277000Y-94107000D03*
X52197000Y-78867000D03*
X59817000Y-94107000D03*
X49657000Y-78867000D03*
X62357000Y-94107000D03*
X47117000Y-78867000D03*
X64897000Y-94107000D03*
X44577000Y-78867000D03*
X67437000Y-94107000D03*
X42037000Y-78867000D03*
X69977000Y-94107000D03*
X39497000Y-78867000D03*
X72517000Y-94107000D03*
X36957000Y-78867000D03*
X36957000Y-94107000D03*
G04 #@! TD*
D22*
G04 #@! TO.C,U4*
X109093000Y-91948000D03*
D21*
X124333000Y-84328000D03*
X111633000Y-91948000D03*
X121793000Y-84328000D03*
X114173000Y-91948000D03*
X119253000Y-84328000D03*
X116713000Y-91948000D03*
X116713000Y-84328000D03*
X119253000Y-91948000D03*
X114173000Y-84328000D03*
X121793000Y-91948000D03*
X111633000Y-84328000D03*
X124333000Y-91948000D03*
X109093000Y-84328000D03*
G04 #@! TD*
D10*
G04 #@! TO.C,REF\002A\002A*
X29590990Y-40409010D03*
X28000000Y-39750000D03*
X26409010Y-40409010D03*
X25750000Y-42000000D03*
X26409010Y-43590990D03*
X28000000Y-44250000D03*
X29590990Y-43590990D03*
X30250000Y-42000000D03*
D11*
X28000000Y-42000000D03*
G04 #@! TD*
M02*
