M48
;DRILL file {KiCad (5.0.0)} date 01/29/21 15:29:31
;FORMAT={-:-/ absolute / inch / decimal}
FMAT,2
INCH,TZ
T1C0.0118
T2C0.0157
T3C0.0197
T4C0.0236
T5C0.0276
T6C0.0315
T7C0.0354
T8C0.0472
T9C0.1181
%
G90
G05
M72
T1
X4.05Y-2.55
X4.385Y-2.55
X4.72Y-2.55
T2
X1.455Y-2.985
X1.555Y-2.99
X1.72Y-2.995
X2.545Y-3.43
X2.66Y-2.835
X2.985Y-2.995
X3.19Y-2.995
X3.225Y-2.915
X3.415Y-3.055
X3.825Y-1.93
X3.875Y-3.105
X4.22Y-2.485
X4.52Y-1.93
X4.795Y-3.5
T3
X5.2264Y-1.6535
X5.2523Y-1.5909
X5.2523Y-1.7162
X5.315Y-1.565
X5.315Y-1.7421
X5.3776Y-1.5909
X5.3776Y-1.7162
X5.4035Y-1.6535
X2.3524Y-4.0945
X2.3783Y-4.0319
X2.3783Y-4.1571
X2.4409Y-4.0059
X2.4409Y-4.1831
X2.5036Y-4.0319
X2.5036Y-4.1571
X2.5295Y-4.0945
X2.3524Y-1.6535
X2.3783Y-1.5909
X2.3783Y-1.7162
X2.4409Y-1.565
X2.4409Y-1.7421
X2.5036Y-1.5909
X2.5036Y-1.7162
X2.5295Y-1.6535
X3.7697Y-1.6535
X3.7956Y-1.5909
X3.7956Y-1.7162
X3.8583Y-1.565
X3.8583Y-1.7421
X3.9209Y-1.5909
X3.9209Y-1.7162
X3.9469Y-1.6535
X3.7697Y-4.0945
X3.7956Y-4.0319
X3.7956Y-4.1571
X3.8583Y-4.0059
X3.8583Y-4.1831
X3.9209Y-4.0319
X3.9209Y-4.1571
X3.9469Y-4.0945
X5.2264Y-4.0945
X5.2523Y-4.0319
X5.2523Y-4.1571
X5.315Y-4.0059
X5.315Y-4.1831
X5.3776Y-4.0319
X5.3776Y-4.1571
X5.4035Y-4.0945
X1.0138Y-1.6535
X1.0397Y-1.5909
X1.0397Y-1.7162
X1.1024Y-1.565
X1.1024Y-1.7421
X1.165Y-1.5909
X1.165Y-1.7162
X1.1909Y-1.6535
X1.0138Y-4.0945
X1.0397Y-4.0319
X1.0397Y-4.1571
X1.1024Y-4.0059
X1.1024Y-4.1831
X1.165Y-4.0319
X1.165Y-4.1571
X1.1909Y-4.0945
T4
X3.1Y-2.745
X3.76Y-3.565
X3.875Y-3.56
X4.2213Y-2.0307
X4.37Y-2.955
X4.6193Y-2.0307
X4.775Y-3.095
X4.945Y-2.83
T6
X1.92Y-2.8346
X2.02Y-2.8346
X2.12Y-2.8346
X3.3465Y-3.725
X3.7465Y-3.725
X3.23Y-2.8346
X3.33Y-2.8346
X2.85Y-2.8346
X2.9484Y-2.8346
X2.44Y-2.8346
X2.54Y-2.8346
X3.565Y-2.8346
X3.665Y-2.8346
X3.345Y-3.43
X3.745Y-3.43
X3.165Y-3.3131
X3.165Y-3.51
X3.59Y-2.0803
X3.59Y-2.4803
X3.89Y-2.8346
X3.99Y-2.8346
X1.4748Y-2.8346
X1.5748Y-2.8346
X3.3465Y-3.15
X3.7465Y-3.15
X3.265Y-2.0803
X3.265Y-2.4803
X1.455Y-3.105
X1.455Y-3.705
X1.555Y-3.105
X1.555Y-3.705
X1.655Y-3.105
X1.655Y-3.705
X1.755Y-3.105
X1.755Y-3.705
X1.855Y-3.105
X1.855Y-3.705
X1.955Y-3.105
X1.955Y-3.705
X2.055Y-3.105
X2.055Y-3.705
X2.155Y-3.105
X2.155Y-3.705
X2.255Y-3.105
X2.255Y-3.705
X2.355Y-3.105
X2.355Y-3.705
X2.455Y-3.105
X2.455Y-3.705
X2.555Y-3.105
X2.555Y-3.705
X2.655Y-3.105
X2.655Y-3.705
X2.755Y-3.105
X2.755Y-3.705
X2.855Y-3.105
X2.855Y-3.705
T8
X2.295Y-2.2835
X2.4919Y-2.2835
X2.6887Y-2.2835
X2.8856Y-2.2835
X1.378Y-2.2835
X1.5748Y-2.2835
X1.7717Y-2.2835
X1.9685Y-2.2835
T9
X5.315Y-1.6535
X2.4409Y-4.0945
X2.4409Y-1.6535
X3.8583Y-1.6535
X3.8583Y-4.0945
X5.315Y-4.0945
X1.1024Y-1.6535
X1.1024Y-4.0945
T5
X4.295Y-3.3269G85X4.295Y-3.3131
G05
X4.295Y-3.6269G85X4.295Y-3.6131
G05
X4.395Y-3.3269G85X4.395Y-3.3131
G05
X4.395Y-3.6269G85X4.395Y-3.6131
G05
X4.495Y-3.3269G85X4.495Y-3.3131
G05
X4.495Y-3.6269G85X4.495Y-3.6131
G05
X4.595Y-3.3269G85X4.595Y-3.3131
G05
X4.595Y-3.6269G85X4.595Y-3.6131
G05
X4.695Y-3.3269G85X4.695Y-3.3131
G05
X4.695Y-3.6269G85X4.695Y-3.6131
G05
X4.795Y-3.3269G85X4.795Y-3.3131
G05
X4.795Y-3.6269G85X4.795Y-3.6131
G05
X4.895Y-3.3269G85X4.895Y-3.3131
G05
X4.895Y-3.6269G85X4.895Y-3.6131
G05
X4.6213Y-2.1085G85X4.6213Y-2.0947
G05
X4.6213Y-2.4085G85X4.6213Y-2.3947
G05
X4.7213Y-2.1085G85X4.7213Y-2.0947
G05
X4.7213Y-2.4085G85X4.7213Y-2.3947
G05
X4.8213Y-2.1085G85X4.8213Y-2.0947
G05
X4.8213Y-2.4085G85X4.8213Y-2.3947
G05
X4.9213Y-2.1085G85X4.9213Y-2.0947
G05
X4.9213Y-2.4085G85X4.9213Y-2.3947
G05
X4.2213Y-2.1085G85X4.2213Y-2.0947
G05
X4.2213Y-2.4085G85X4.2213Y-2.3947
G05
X4.3213Y-2.1085G85X4.3213Y-2.0947
G05
X4.3213Y-2.4085G85X4.3213Y-2.3947
G05
X4.4213Y-2.1085G85X4.4213Y-2.0947
G05
X4.4213Y-2.4085G85X4.4213Y-2.3947
G05
X4.5213Y-2.1085G85X4.5213Y-2.0947
G05
X4.5213Y-2.4085G85X4.5213Y-2.3947
G05
T7
X4.58Y-2.8024G85X4.58Y-2.8576
G05
X4.7769Y-2.8024G85X4.7769Y-2.8576
G05
T0
M30
