G04 #@! TF.GenerationSoftware,KiCad,Pcbnew,(5.0.0)*
G04 #@! TF.CreationDate,2021-01-29T15:29:07+01:00*
G04 #@! TF.ProjectId,Programmateur_ATtiny85_02,50726F6772616D6D61746575725F4154,rev?*
G04 #@! TF.SameCoordinates,Original*
G04 #@! TF.FileFunction,Legend,Top*
G04 #@! TF.FilePolarity,Positive*
%FSLAX46Y46*%
G04 Gerber Fmt 4.6, Leading zero omitted, Abs format (unit mm)*
G04 Created by KiCad (PCBNEW (5.0.0)) date 01/29/21 15:29:07*
%MOMM*%
%LPD*%
G01*
G04 APERTURE LIST*
%ADD10C,0.800000*%
%ADD11C,0.675000*%
%ADD12C,0.900000*%
%ADD13C,0.120000*%
%ADD14C,0.150000*%
%ADD15C,0.300000*%
G04 APERTURE END LIST*
D10*
X71151714Y-48830857D02*
X71151714Y-45783238D01*
X72675523Y-47307047D02*
X69627904Y-47307047D01*
X68675523Y-41973714D02*
X68675523Y-43878476D01*
X70580285Y-44068952D01*
X70389809Y-43878476D01*
X70199333Y-43497523D01*
X70199333Y-42545142D01*
X70389809Y-42164190D01*
X70580285Y-41973714D01*
X70961238Y-41783238D01*
X71913619Y-41783238D01*
X72294571Y-41973714D01*
X72485047Y-42164190D01*
X72675523Y-42545142D01*
X72675523Y-43497523D01*
X72485047Y-43878476D01*
X72294571Y-44068952D01*
X68675523Y-40640380D02*
X72675523Y-39307047D01*
X68675523Y-37973714D01*
X40862523Y-44703761D02*
X40862523Y-44322809D01*
X41052999Y-43941857D01*
X41243476Y-43751380D01*
X41624428Y-43560904D01*
X42386333Y-43370428D01*
X43338714Y-43370428D01*
X44100619Y-43560904D01*
X44481571Y-43751380D01*
X44672047Y-43941857D01*
X44862523Y-44322809D01*
X44862523Y-44703761D01*
X44672047Y-45084714D01*
X44481571Y-45275190D01*
X44100619Y-45465666D01*
X43338714Y-45656142D01*
X42386333Y-45656142D01*
X41624428Y-45465666D01*
X41243476Y-45275190D01*
X41052999Y-45084714D01*
X40862523Y-44703761D01*
X40862523Y-42227571D02*
X44862523Y-40894238D01*
X40862523Y-39560904D01*
D11*
X66351388Y-104853428D02*
X66688888Y-102153428D01*
X67717459Y-102153428D01*
X67958531Y-102282000D01*
X68071031Y-102410571D01*
X68167459Y-102667714D01*
X68119245Y-103053428D01*
X67958531Y-103310571D01*
X67813888Y-103439142D01*
X67540674Y-103567714D01*
X66512102Y-103567714D01*
X70594245Y-104853428D02*
X69854959Y-103567714D01*
X69051388Y-104853428D02*
X69388888Y-102153428D01*
X70417459Y-102153428D01*
X70658531Y-102282000D01*
X70771031Y-102410571D01*
X70867459Y-102667714D01*
X70819245Y-103053428D01*
X70658531Y-103310571D01*
X70513888Y-103439142D01*
X70240674Y-103567714D01*
X69212102Y-103567714D01*
X72603174Y-102153428D02*
X73117459Y-102153428D01*
X73358531Y-102282000D01*
X73583531Y-102539142D01*
X73647816Y-103053428D01*
X73535316Y-103953428D01*
X73342459Y-104467714D01*
X73053174Y-104724857D01*
X72779959Y-104853428D01*
X72265674Y-104853428D01*
X72024602Y-104724857D01*
X71799602Y-104467714D01*
X71735316Y-103953428D01*
X71847816Y-103053428D01*
X72040674Y-102539142D01*
X72329959Y-102282000D01*
X72603174Y-102153428D01*
X76315674Y-102282000D02*
X76074602Y-102153428D01*
X75688888Y-102153428D01*
X75287102Y-102282000D01*
X74997816Y-102539142D01*
X74837102Y-102796285D01*
X74644245Y-103310571D01*
X74596031Y-103696285D01*
X74660316Y-104210571D01*
X74756745Y-104467714D01*
X74981745Y-104724857D01*
X75351388Y-104853428D01*
X75608531Y-104853428D01*
X76010316Y-104724857D01*
X76154959Y-104596285D01*
X76267459Y-103696285D01*
X75753174Y-103696285D01*
X78822816Y-104853428D02*
X78083531Y-103567714D01*
X77279959Y-104853428D02*
X77617459Y-102153428D01*
X78646031Y-102153428D01*
X78887102Y-102282000D01*
X78999602Y-102410571D01*
X79096031Y-102667714D01*
X79047816Y-103053428D01*
X78887102Y-103310571D01*
X78742459Y-103439142D01*
X78469245Y-103567714D01*
X77440674Y-103567714D01*
X79947816Y-104082000D02*
X81233531Y-104082000D01*
X79594245Y-104853428D02*
X80831745Y-102153428D01*
X81394245Y-104853428D01*
X82294245Y-104853428D02*
X82631745Y-102153428D01*
X83290674Y-104082000D01*
X84431745Y-102153428D01*
X84094245Y-104853428D01*
X85379959Y-104853428D02*
X85717459Y-102153428D01*
X86376388Y-104082000D01*
X87517459Y-102153428D01*
X87179959Y-104853428D01*
X88642459Y-103439142D02*
X89542459Y-103439142D01*
X89751388Y-104853428D02*
X88465674Y-104853428D01*
X88803174Y-102153428D01*
X90088888Y-102153428D01*
X92451388Y-104853428D02*
X91712102Y-103567714D01*
X90908531Y-104853428D02*
X91246031Y-102153428D01*
X92274602Y-102153428D01*
X92515674Y-102282000D01*
X92628174Y-102410571D01*
X92724602Y-102667714D01*
X92676388Y-103053428D01*
X92515674Y-103310571D01*
X92371031Y-103439142D01*
X92097816Y-103567714D01*
X91069245Y-103567714D01*
D10*
X40788041Y-110041333D02*
X41225541Y-106541333D01*
X42308874Y-109874666D02*
X42788041Y-110041333D01*
X43621375Y-110041333D01*
X43975541Y-109874666D01*
X44163041Y-109708000D01*
X44371375Y-109374666D01*
X44413041Y-109041333D01*
X44288041Y-108708000D01*
X44142208Y-108541333D01*
X43829708Y-108374666D01*
X43183875Y-108208000D01*
X42871375Y-108041333D01*
X42725541Y-107874666D01*
X42600541Y-107541333D01*
X42642208Y-107208000D01*
X42850541Y-106874666D01*
X43038041Y-106708000D01*
X43392208Y-106541333D01*
X44225541Y-106541333D01*
X44704708Y-106708000D01*
X45788041Y-110041333D02*
X46225541Y-106541333D01*
X47558874Y-106541333D01*
X47871375Y-106708000D01*
X48017208Y-106874666D01*
X48142208Y-107208000D01*
X48079708Y-107708000D01*
X47871375Y-108041333D01*
X47683875Y-108208000D01*
X47329708Y-108374666D01*
X45996375Y-108374666D01*
X33538041Y-104199333D02*
X33975541Y-100699333D01*
X35538041Y-104199333D01*
X35975541Y-100699333D01*
X37163041Y-103199333D02*
X38829708Y-103199333D01*
X36704708Y-104199333D02*
X38308874Y-100699333D01*
X39038041Y-104199333D01*
X40204708Y-104199333D02*
X40642208Y-100699333D01*
X42204708Y-104199333D01*
X42642208Y-100699333D01*
X44975541Y-100699333D02*
X45642208Y-100699333D01*
X45954708Y-100866000D01*
X46246374Y-101199333D01*
X46329708Y-101866000D01*
X46183874Y-103032666D01*
X45933874Y-103699333D01*
X45558874Y-104032666D01*
X45204708Y-104199333D01*
X44538041Y-104199333D01*
X44225541Y-104032666D01*
X43933875Y-103699333D01*
X43850541Y-103032666D01*
X43996374Y-101866000D01*
X44246375Y-101199333D01*
X44621374Y-100866000D01*
X44975541Y-100699333D01*
X50163041Y-103199333D02*
X51829708Y-103199333D01*
X49704708Y-104199333D02*
X51308874Y-100699333D01*
X52038041Y-104199333D01*
X53058875Y-104032666D02*
X53538041Y-104199333D01*
X54371374Y-104199333D01*
X54725541Y-104032666D01*
X54913041Y-103866000D01*
X55121375Y-103532666D01*
X55163041Y-103199333D01*
X55038041Y-102866000D01*
X54892208Y-102699333D01*
X54579708Y-102532666D01*
X53933874Y-102366000D01*
X53621374Y-102199333D01*
X53475541Y-102032666D01*
X53350541Y-101699333D01*
X53392208Y-101366000D01*
X53600541Y-101032666D01*
X53788041Y-100866000D01*
X54142208Y-100699333D01*
X54975541Y-100699333D01*
X55454708Y-100866000D01*
D12*
X104490714Y-108362666D02*
X106395476Y-108362666D01*
X104109761Y-109505523D02*
X105443095Y-105505523D01*
X106776428Y-109505523D01*
X107538333Y-105505523D02*
X109824047Y-105505523D01*
X108681190Y-109505523D02*
X108681190Y-105505523D01*
X110585952Y-106838857D02*
X112109761Y-106838857D01*
X111157380Y-105505523D02*
X111157380Y-108934095D01*
X111347857Y-109315047D01*
X111728809Y-109505523D01*
X112109761Y-109505523D01*
X113443095Y-109505523D02*
X113443095Y-106838857D01*
X113443095Y-105505523D02*
X113252619Y-105696000D01*
X113443095Y-105886476D01*
X113633571Y-105696000D01*
X113443095Y-105505523D01*
X113443095Y-105886476D01*
X115347857Y-106838857D02*
X115347857Y-109505523D01*
X115347857Y-107219809D02*
X115538333Y-107029333D01*
X115919285Y-106838857D01*
X116490714Y-106838857D01*
X116871666Y-107029333D01*
X117062142Y-107410285D01*
X117062142Y-109505523D01*
X118585952Y-106838857D02*
X119538333Y-109505523D01*
X120490714Y-106838857D02*
X119538333Y-109505523D01*
X119157380Y-110457904D01*
X118966904Y-110648380D01*
X118585952Y-110838857D01*
X122585952Y-107219809D02*
X122204999Y-107029333D01*
X122014523Y-106838857D01*
X121824047Y-106457904D01*
X121824047Y-106267428D01*
X122014523Y-105886476D01*
X122204999Y-105696000D01*
X122585952Y-105505523D01*
X123347857Y-105505523D01*
X123728809Y-105696000D01*
X123919285Y-105886476D01*
X124109761Y-106267428D01*
X124109761Y-106457904D01*
X123919285Y-106838857D01*
X123728809Y-107029333D01*
X123347857Y-107219809D01*
X122585952Y-107219809D01*
X122204999Y-107410285D01*
X122014523Y-107600761D01*
X121824047Y-107981714D01*
X121824047Y-108743619D01*
X122014523Y-109124571D01*
X122204999Y-109315047D01*
X122585952Y-109505523D01*
X123347857Y-109505523D01*
X123728809Y-109315047D01*
X123919285Y-109124571D01*
X124109761Y-108743619D01*
X124109761Y-107981714D01*
X123919285Y-107600761D01*
X123728809Y-107410285D01*
X123347857Y-107219809D01*
X127538333Y-106838857D02*
X127538333Y-109505523D01*
X126585952Y-105315047D02*
X125633571Y-108172190D01*
X128109761Y-108172190D01*
X104490714Y-37115666D02*
X106395476Y-37115666D01*
X104109761Y-38258523D02*
X105443095Y-34258523D01*
X106776428Y-38258523D01*
X107538333Y-34258523D02*
X109824047Y-34258523D01*
X108681190Y-38258523D02*
X108681190Y-34258523D01*
X110585952Y-35591857D02*
X112109761Y-35591857D01*
X111157380Y-34258523D02*
X111157380Y-37687095D01*
X111347857Y-38068047D01*
X111728809Y-38258523D01*
X112109761Y-38258523D01*
X113443095Y-38258523D02*
X113443095Y-35591857D01*
X113443095Y-34258523D02*
X113252619Y-34449000D01*
X113443095Y-34639476D01*
X113633571Y-34449000D01*
X113443095Y-34258523D01*
X113443095Y-34639476D01*
X115347857Y-35591857D02*
X115347857Y-38258523D01*
X115347857Y-35972809D02*
X115538333Y-35782333D01*
X115919285Y-35591857D01*
X116490714Y-35591857D01*
X116871666Y-35782333D01*
X117062142Y-36163285D01*
X117062142Y-38258523D01*
X118585952Y-35591857D02*
X119538333Y-38258523D01*
X120490714Y-35591857D02*
X119538333Y-38258523D01*
X119157380Y-39210904D01*
X118966904Y-39401380D01*
X118585952Y-39591857D01*
X122585952Y-35972809D02*
X122204999Y-35782333D01*
X122014523Y-35591857D01*
X121824047Y-35210904D01*
X121824047Y-35020428D01*
X122014523Y-34639476D01*
X122204999Y-34449000D01*
X122585952Y-34258523D01*
X123347857Y-34258523D01*
X123728809Y-34449000D01*
X123919285Y-34639476D01*
X124109761Y-35020428D01*
X124109761Y-35210904D01*
X123919285Y-35591857D01*
X123728809Y-35782333D01*
X123347857Y-35972809D01*
X122585952Y-35972809D01*
X122204999Y-36163285D01*
X122014523Y-36353761D01*
X121824047Y-36734714D01*
X121824047Y-37496619D01*
X122014523Y-37877571D01*
X122204999Y-38068047D01*
X122585952Y-38258523D01*
X123347857Y-38258523D01*
X123728809Y-38068047D01*
X123919285Y-37877571D01*
X124109761Y-37496619D01*
X124109761Y-36734714D01*
X123919285Y-36353761D01*
X123728809Y-36163285D01*
X123347857Y-35972809D01*
X127728809Y-34258523D02*
X125824047Y-34258523D01*
X125633571Y-36163285D01*
X125824047Y-35972809D01*
X126204999Y-35782333D01*
X127157380Y-35782333D01*
X127538333Y-35972809D01*
X127728809Y-36163285D01*
X127919285Y-36544238D01*
X127919285Y-37496619D01*
X127728809Y-37877571D01*
X127538333Y-38068047D01*
X127157380Y-38258523D01*
X126204999Y-38258523D01*
X125824047Y-38068047D01*
X125633571Y-37877571D01*
X136429571Y-93120285D02*
X136620047Y-93310761D01*
X136810523Y-93882190D01*
X136810523Y-94263142D01*
X136620047Y-94834571D01*
X136239095Y-95215523D01*
X135858142Y-95406000D01*
X135096238Y-95596476D01*
X134524809Y-95596476D01*
X133762904Y-95406000D01*
X133381952Y-95215523D01*
X133000999Y-94834571D01*
X132810523Y-94263142D01*
X132810523Y-93882190D01*
X133000999Y-93310761D01*
X133191476Y-93120285D01*
X136810523Y-90834571D02*
X136620047Y-91215523D01*
X136239095Y-91406000D01*
X132810523Y-91406000D01*
X136810523Y-87596476D02*
X134715285Y-87596476D01*
X134334333Y-87786952D01*
X134143857Y-88167904D01*
X134143857Y-88929809D01*
X134334333Y-89310761D01*
X136620047Y-87596476D02*
X136810523Y-87977428D01*
X136810523Y-88929809D01*
X136620047Y-89310761D01*
X136239095Y-89501238D01*
X135858142Y-89501238D01*
X135477190Y-89310761D01*
X135286714Y-88929809D01*
X135286714Y-87977428D01*
X135096238Y-87596476D01*
X134143857Y-83977428D02*
X136810523Y-83977428D01*
X134143857Y-85691714D02*
X136239095Y-85691714D01*
X136620047Y-85501238D01*
X136810523Y-85120285D01*
X136810523Y-84548857D01*
X136620047Y-84167904D01*
X136429571Y-83977428D01*
X136810523Y-80358380D02*
X132810523Y-80358380D01*
X136620047Y-80358380D02*
X136810523Y-80739333D01*
X136810523Y-81501238D01*
X136620047Y-81882190D01*
X136429571Y-82072666D01*
X136048619Y-82263142D01*
X134905761Y-82263142D01*
X134524809Y-82072666D01*
X134334333Y-81882190D01*
X134143857Y-81501238D01*
X134143857Y-80739333D01*
X134334333Y-80358380D01*
X136810523Y-78453619D02*
X134143857Y-78453619D01*
X132810523Y-78453619D02*
X133000999Y-78644095D01*
X133191476Y-78453619D01*
X133000999Y-78263142D01*
X132810523Y-78453619D01*
X133191476Y-78453619D01*
X134143857Y-74834571D02*
X136810523Y-74834571D01*
X134143857Y-76548857D02*
X136239095Y-76548857D01*
X136620047Y-76358380D01*
X136810523Y-75977428D01*
X136810523Y-75406000D01*
X136620047Y-75025047D01*
X136429571Y-74834571D01*
X136620047Y-73120285D02*
X136810523Y-72739333D01*
X136810523Y-71977428D01*
X136620047Y-71596476D01*
X136239095Y-71406000D01*
X136048619Y-71406000D01*
X135667666Y-71596476D01*
X135477190Y-71977428D01*
X135477190Y-72548857D01*
X135286714Y-72929809D01*
X134905761Y-73120285D01*
X134715285Y-73120285D01*
X134334333Y-72929809D01*
X134143857Y-72548857D01*
X134143857Y-71977428D01*
X134334333Y-71596476D01*
X136810523Y-69691714D02*
X134143857Y-69691714D01*
X134524809Y-69691714D02*
X134334333Y-69501238D01*
X134143857Y-69120285D01*
X134143857Y-68548857D01*
X134334333Y-68167904D01*
X134715285Y-67977428D01*
X136810523Y-67977428D01*
X134715285Y-67977428D02*
X134334333Y-67786952D01*
X134143857Y-67406000D01*
X134143857Y-66834571D01*
X134334333Y-66453619D01*
X134715285Y-66263142D01*
X136810523Y-66263142D01*
X136810523Y-62644095D02*
X134715285Y-62644095D01*
X134334333Y-62834571D01*
X134143857Y-63215523D01*
X134143857Y-63977428D01*
X134334333Y-64358380D01*
X136620047Y-62644095D02*
X136810523Y-63025047D01*
X136810523Y-63977428D01*
X136620047Y-64358380D01*
X136239095Y-64548857D01*
X135858142Y-64548857D01*
X135477190Y-64358380D01*
X135286714Y-63977428D01*
X135286714Y-63025047D01*
X135096238Y-62644095D01*
X136810523Y-60739333D02*
X134143857Y-60739333D01*
X134905761Y-60739333D02*
X134524809Y-60548857D01*
X134334333Y-60358380D01*
X134143857Y-59977428D01*
X134143857Y-59596476D01*
X136810523Y-58263142D02*
X134143857Y-58263142D01*
X132810523Y-58263142D02*
X133001000Y-58453619D01*
X133191476Y-58263142D01*
X133001000Y-58072666D01*
X132810523Y-58263142D01*
X133191476Y-58263142D01*
X134143857Y-54644095D02*
X136810523Y-54644095D01*
X134143857Y-56358380D02*
X136239095Y-56358380D01*
X136620047Y-56167904D01*
X136810523Y-55786952D01*
X136810523Y-55215523D01*
X136620047Y-54834571D01*
X136429571Y-54644095D01*
X136620047Y-52929809D02*
X136810523Y-52548857D01*
X136810523Y-51786952D01*
X136620047Y-51406000D01*
X136239095Y-51215523D01*
X136048619Y-51215523D01*
X135667666Y-51406000D01*
X135477190Y-51786952D01*
X135477190Y-52358380D01*
X135286714Y-52739333D01*
X134905761Y-52929809D01*
X134715285Y-52929809D01*
X134334333Y-52739333D01*
X134143857Y-52358380D01*
X134143857Y-51786952D01*
X134334333Y-51406000D01*
D13*
G04 #@! TO.C,C1*
X76260000Y-72000000D02*
G75*
G03X76260000Y-72000000I-2620000J0D01*
G01*
X73640000Y-69420000D02*
X73640000Y-74580000D01*
X73680000Y-69420000D02*
X73680000Y-74580000D01*
X73720000Y-69421000D02*
X73720000Y-74579000D01*
X73760000Y-69422000D02*
X73760000Y-74578000D01*
X73800000Y-69424000D02*
X73800000Y-74576000D01*
X73840000Y-69427000D02*
X73840000Y-74573000D01*
X73880000Y-69431000D02*
X73880000Y-70960000D01*
X73880000Y-73040000D02*
X73880000Y-74569000D01*
X73920000Y-69435000D02*
X73920000Y-70960000D01*
X73920000Y-73040000D02*
X73920000Y-74565000D01*
X73960000Y-69439000D02*
X73960000Y-70960000D01*
X73960000Y-73040000D02*
X73960000Y-74561000D01*
X74000000Y-69444000D02*
X74000000Y-70960000D01*
X74000000Y-73040000D02*
X74000000Y-74556000D01*
X74040000Y-69450000D02*
X74040000Y-70960000D01*
X74040000Y-73040000D02*
X74040000Y-74550000D01*
X74080000Y-69457000D02*
X74080000Y-70960000D01*
X74080000Y-73040000D02*
X74080000Y-74543000D01*
X74120000Y-69464000D02*
X74120000Y-70960000D01*
X74120000Y-73040000D02*
X74120000Y-74536000D01*
X74160000Y-69472000D02*
X74160000Y-70960000D01*
X74160000Y-73040000D02*
X74160000Y-74528000D01*
X74200000Y-69480000D02*
X74200000Y-70960000D01*
X74200000Y-73040000D02*
X74200000Y-74520000D01*
X74240000Y-69489000D02*
X74240000Y-70960000D01*
X74240000Y-73040000D02*
X74240000Y-74511000D01*
X74280000Y-69499000D02*
X74280000Y-70960000D01*
X74280000Y-73040000D02*
X74280000Y-74501000D01*
X74320000Y-69509000D02*
X74320000Y-70960000D01*
X74320000Y-73040000D02*
X74320000Y-74491000D01*
X74361000Y-69520000D02*
X74361000Y-70960000D01*
X74361000Y-73040000D02*
X74361000Y-74480000D01*
X74401000Y-69532000D02*
X74401000Y-70960000D01*
X74401000Y-73040000D02*
X74401000Y-74468000D01*
X74441000Y-69545000D02*
X74441000Y-70960000D01*
X74441000Y-73040000D02*
X74441000Y-74455000D01*
X74481000Y-69558000D02*
X74481000Y-70960000D01*
X74481000Y-73040000D02*
X74481000Y-74442000D01*
X74521000Y-69572000D02*
X74521000Y-70960000D01*
X74521000Y-73040000D02*
X74521000Y-74428000D01*
X74561000Y-69586000D02*
X74561000Y-70960000D01*
X74561000Y-73040000D02*
X74561000Y-74414000D01*
X74601000Y-69602000D02*
X74601000Y-70960000D01*
X74601000Y-73040000D02*
X74601000Y-74398000D01*
X74641000Y-69618000D02*
X74641000Y-70960000D01*
X74641000Y-73040000D02*
X74641000Y-74382000D01*
X74681000Y-69635000D02*
X74681000Y-70960000D01*
X74681000Y-73040000D02*
X74681000Y-74365000D01*
X74721000Y-69652000D02*
X74721000Y-70960000D01*
X74721000Y-73040000D02*
X74721000Y-74348000D01*
X74761000Y-69671000D02*
X74761000Y-70960000D01*
X74761000Y-73040000D02*
X74761000Y-74329000D01*
X74801000Y-69690000D02*
X74801000Y-70960000D01*
X74801000Y-73040000D02*
X74801000Y-74310000D01*
X74841000Y-69710000D02*
X74841000Y-70960000D01*
X74841000Y-73040000D02*
X74841000Y-74290000D01*
X74881000Y-69732000D02*
X74881000Y-70960000D01*
X74881000Y-73040000D02*
X74881000Y-74268000D01*
X74921000Y-69753000D02*
X74921000Y-70960000D01*
X74921000Y-73040000D02*
X74921000Y-74247000D01*
X74961000Y-69776000D02*
X74961000Y-70960000D01*
X74961000Y-73040000D02*
X74961000Y-74224000D01*
X75001000Y-69800000D02*
X75001000Y-70960000D01*
X75001000Y-73040000D02*
X75001000Y-74200000D01*
X75041000Y-69825000D02*
X75041000Y-70960000D01*
X75041000Y-73040000D02*
X75041000Y-74175000D01*
X75081000Y-69851000D02*
X75081000Y-70960000D01*
X75081000Y-73040000D02*
X75081000Y-74149000D01*
X75121000Y-69878000D02*
X75121000Y-70960000D01*
X75121000Y-73040000D02*
X75121000Y-74122000D01*
X75161000Y-69905000D02*
X75161000Y-70960000D01*
X75161000Y-73040000D02*
X75161000Y-74095000D01*
X75201000Y-69935000D02*
X75201000Y-70960000D01*
X75201000Y-73040000D02*
X75201000Y-74065000D01*
X75241000Y-69965000D02*
X75241000Y-70960000D01*
X75241000Y-73040000D02*
X75241000Y-74035000D01*
X75281000Y-69996000D02*
X75281000Y-70960000D01*
X75281000Y-73040000D02*
X75281000Y-74004000D01*
X75321000Y-70029000D02*
X75321000Y-70960000D01*
X75321000Y-73040000D02*
X75321000Y-73971000D01*
X75361000Y-70063000D02*
X75361000Y-70960000D01*
X75361000Y-73040000D02*
X75361000Y-73937000D01*
X75401000Y-70099000D02*
X75401000Y-70960000D01*
X75401000Y-73040000D02*
X75401000Y-73901000D01*
X75441000Y-70136000D02*
X75441000Y-70960000D01*
X75441000Y-73040000D02*
X75441000Y-73864000D01*
X75481000Y-70174000D02*
X75481000Y-70960000D01*
X75481000Y-73040000D02*
X75481000Y-73826000D01*
X75521000Y-70215000D02*
X75521000Y-70960000D01*
X75521000Y-73040000D02*
X75521000Y-73785000D01*
X75561000Y-70257000D02*
X75561000Y-70960000D01*
X75561000Y-73040000D02*
X75561000Y-73743000D01*
X75601000Y-70301000D02*
X75601000Y-70960000D01*
X75601000Y-73040000D02*
X75601000Y-73699000D01*
X75641000Y-70347000D02*
X75641000Y-70960000D01*
X75641000Y-73040000D02*
X75641000Y-73653000D01*
X75681000Y-70395000D02*
X75681000Y-70960000D01*
X75681000Y-73040000D02*
X75681000Y-73605000D01*
X75721000Y-70446000D02*
X75721000Y-70960000D01*
X75721000Y-73040000D02*
X75721000Y-73554000D01*
X75761000Y-70500000D02*
X75761000Y-70960000D01*
X75761000Y-73040000D02*
X75761000Y-73500000D01*
X75801000Y-70557000D02*
X75801000Y-70960000D01*
X75801000Y-73040000D02*
X75801000Y-73443000D01*
X75841000Y-70617000D02*
X75841000Y-70960000D01*
X75841000Y-73040000D02*
X75841000Y-73383000D01*
X75881000Y-70681000D02*
X75881000Y-70960000D01*
X75881000Y-73040000D02*
X75881000Y-73319000D01*
X75921000Y-70749000D02*
X75921000Y-70960000D01*
X75921000Y-73040000D02*
X75921000Y-73251000D01*
X75961000Y-70822000D02*
X75961000Y-73178000D01*
X76001000Y-70902000D02*
X76001000Y-73098000D01*
X76041000Y-70989000D02*
X76041000Y-73011000D01*
X76081000Y-71085000D02*
X76081000Y-72915000D01*
X76121000Y-71195000D02*
X76121000Y-72805000D01*
X76161000Y-71323000D02*
X76161000Y-72677000D01*
X76201000Y-71482000D02*
X76201000Y-72518000D01*
X76241000Y-71716000D02*
X76241000Y-72284000D01*
X70835225Y-70525000D02*
X71335225Y-70525000D01*
X71085225Y-70275000D02*
X71085225Y-70775000D01*
G04 #@! TO.C,C2*
X79271000Y-90274000D02*
X79271000Y-83034000D01*
X81511000Y-90274000D02*
X81511000Y-83034000D01*
X79271000Y-90274000D02*
X81511000Y-90274000D01*
X79271000Y-83034000D02*
X81511000Y-83034000D01*
G04 #@! TO.C,D1*
X81639665Y-73078608D02*
G75*
G03X84872000Y-73235516I1672335J1078608D01*
G01*
X81639665Y-70921392D02*
G75*
G02X84872000Y-70764484I1672335J-1078608D01*
G01*
X82270870Y-73079837D02*
G75*
G03X84352961Y-73080000I1041130J1079837D01*
G01*
X82270870Y-70920163D02*
G75*
G02X84352961Y-70920000I1041130J-1079837D01*
G01*
X84872000Y-73236000D02*
X84872000Y-73080000D01*
X84872000Y-70920000D02*
X84872000Y-70764000D01*
G04 #@! TO.C,D2*
X101636000Y-70920000D02*
X101636000Y-70764000D01*
X101636000Y-73236000D02*
X101636000Y-73080000D01*
X99034870Y-70920163D02*
G75*
G02X101116961Y-70920000I1041130J-1079837D01*
G01*
X99034870Y-73079837D02*
G75*
G03X101116961Y-73080000I1041130J1079837D01*
G01*
X98403665Y-70921392D02*
G75*
G02X101636000Y-70764484I1672335J-1078608D01*
G01*
X98403665Y-73078608D02*
G75*
G03X101636000Y-73235516I1672335J1078608D01*
G01*
G04 #@! TO.C,D3*
X64918335Y-70921392D02*
G75*
G03X61686000Y-70764484I-1672335J-1078608D01*
G01*
X64918335Y-73078608D02*
G75*
G02X61686000Y-73235516I-1672335J1078608D01*
G01*
X64287130Y-70920163D02*
G75*
G03X62205039Y-70920000I-1041130J-1079837D01*
G01*
X64287130Y-73079837D02*
G75*
G02X62205039Y-73080000I-1041130J1079837D01*
G01*
X61686000Y-70764000D02*
X61686000Y-70920000D01*
X61686000Y-73080000D02*
X61686000Y-73236000D01*
G04 #@! TO.C,D4*
X90261000Y-73080000D02*
X90261000Y-73236000D01*
X90261000Y-70764000D02*
X90261000Y-70920000D01*
X92862130Y-73079837D02*
G75*
G02X90780039Y-73080000I-1041130J1079837D01*
G01*
X92862130Y-70920163D02*
G75*
G03X90780039Y-70920000I-1041130J-1079837D01*
G01*
X93493335Y-73078608D02*
G75*
G02X90261000Y-73235516I-1672335J1078608D01*
G01*
X93493335Y-70921392D02*
G75*
G03X90261000Y-70764484I-1672335J-1078608D01*
G01*
G04 #@! TO.C,D5*
X37057665Y-73078608D02*
G75*
G03X40290000Y-73235516I1672335J1078608D01*
G01*
X37057665Y-70921392D02*
G75*
G02X40290000Y-70764484I1672335J-1078608D01*
G01*
X37688870Y-73079837D02*
G75*
G03X39770961Y-73080000I1041130J1079837D01*
G01*
X37688870Y-70920163D02*
G75*
G02X39770961Y-70920000I1041130J-1079837D01*
G01*
X40290000Y-73236000D02*
X40290000Y-73080000D01*
X40290000Y-70920000D02*
X40290000Y-70764000D01*
G04 #@! TO.C,J1*
X32350000Y-64300000D02*
X32350000Y-51700000D01*
X52650000Y-64300000D02*
X32350000Y-64300000D01*
X52650000Y-63350000D02*
X52650000Y-64300000D01*
X53200000Y-63650000D02*
X52650000Y-63350000D01*
X53200000Y-61600000D02*
X53200000Y-63650000D01*
X52650000Y-61900000D02*
X53200000Y-61600000D01*
X52650000Y-56500000D02*
X52650000Y-61900000D01*
X53150000Y-56750000D02*
X52650000Y-56500000D01*
X53150000Y-51700000D02*
X53150000Y-56750000D01*
X32350000Y-51700000D02*
X53150000Y-51700000D01*
G04 #@! TO.C,J2*
X55643000Y-51700000D02*
X76443000Y-51700000D01*
X76443000Y-51700000D02*
X76443000Y-56750000D01*
X76443000Y-56750000D02*
X75943000Y-56500000D01*
X75943000Y-56500000D02*
X75943000Y-61900000D01*
X75943000Y-61900000D02*
X76493000Y-61600000D01*
X76493000Y-61600000D02*
X76493000Y-63650000D01*
X76493000Y-63650000D02*
X75943000Y-63350000D01*
X75943000Y-63350000D02*
X75943000Y-64300000D01*
X75943000Y-64300000D02*
X55643000Y-64300000D01*
X55643000Y-64300000D02*
X55643000Y-51700000D01*
G04 #@! TO.C,J3*
X47438000Y-70670000D02*
X47438000Y-73330000D01*
X52578000Y-70670000D02*
X47438000Y-70670000D01*
X52578000Y-73330000D02*
X47438000Y-73330000D01*
X52578000Y-70670000D02*
X52578000Y-73330000D01*
X53848000Y-70670000D02*
X55178000Y-70670000D01*
X55178000Y-70670000D02*
X55178000Y-72000000D01*
G04 #@! TO.C,R1*
X94120000Y-94615000D02*
X93350000Y-94615000D01*
X86040000Y-94615000D02*
X86810000Y-94615000D01*
X93350000Y-93245000D02*
X86810000Y-93245000D01*
X93350000Y-95985000D02*
X93350000Y-93245000D01*
X86810000Y-95985000D02*
X93350000Y-95985000D01*
X86810000Y-93245000D02*
X86810000Y-95985000D01*
G04 #@! TO.C,R2*
X89816000Y-61190000D02*
X92556000Y-61190000D01*
X92556000Y-61190000D02*
X92556000Y-54650000D01*
X92556000Y-54650000D02*
X89816000Y-54650000D01*
X89816000Y-54650000D02*
X89816000Y-61190000D01*
X91186000Y-61960000D02*
X91186000Y-61190000D01*
X91186000Y-53880000D02*
X91186000Y-54650000D01*
G04 #@! TO.C,R3*
X94120000Y-80010000D02*
X93350000Y-80010000D01*
X86040000Y-80010000D02*
X86810000Y-80010000D01*
X93350000Y-78640000D02*
X86810000Y-78640000D01*
X93350000Y-81380000D02*
X93350000Y-78640000D01*
X86810000Y-81380000D02*
X93350000Y-81380000D01*
X86810000Y-78640000D02*
X86810000Y-81380000D01*
G04 #@! TO.C,R4*
X81561000Y-61190000D02*
X84301000Y-61190000D01*
X84301000Y-61190000D02*
X84301000Y-54650000D01*
X84301000Y-54650000D02*
X81561000Y-54650000D01*
X81561000Y-54650000D02*
X81561000Y-61190000D01*
X82931000Y-61960000D02*
X82931000Y-61190000D01*
X82931000Y-53880000D02*
X82931000Y-54650000D01*
G04 #@! TO.C,R5*
X93313000Y-88492000D02*
X93313000Y-85752000D01*
X93313000Y-85752000D02*
X86773000Y-85752000D01*
X86773000Y-85752000D02*
X86773000Y-88492000D01*
X86773000Y-88492000D02*
X93313000Y-88492000D01*
X94083000Y-87122000D02*
X93313000Y-87122000D01*
X86003000Y-87122000D02*
X86773000Y-87122000D01*
G04 #@! TO.C,SW2*
X113722000Y-68072000D02*
X113722000Y-76792000D01*
X113722000Y-76792000D02*
X123942000Y-76792000D01*
X123942000Y-76792000D02*
X123942000Y-68072000D01*
X123942000Y-68072000D02*
X113722000Y-68072000D01*
X113522000Y-71882000D02*
X112922000Y-72182000D01*
X112922000Y-72182000D02*
X112922000Y-71582000D01*
X112922000Y-71582000D02*
X113522000Y-71882000D01*
G04 #@! TO.C,U1*
X105890000Y-54540000D02*
X105890000Y-56190000D01*
X116170000Y-54540000D02*
X105890000Y-54540000D01*
X116170000Y-59840000D02*
X116170000Y-54540000D01*
X105890000Y-59840000D02*
X116170000Y-59840000D01*
X105890000Y-58190000D02*
X105890000Y-59840000D01*
X105890000Y-56190000D02*
G75*
G02X105890000Y-58190000I0J-1000000D01*
G01*
G04 #@! TO.C,U2*
X116050000Y-56190000D02*
G75*
G02X116050000Y-58190000I0J-1000000D01*
G01*
X116050000Y-58190000D02*
X116050000Y-59840000D01*
X116050000Y-59840000D02*
X126330000Y-59840000D01*
X126330000Y-59840000D02*
X126330000Y-54540000D01*
X126330000Y-54540000D02*
X116050000Y-54540000D01*
X116050000Y-54540000D02*
X116050000Y-56190000D01*
G04 #@! TO.C,U3*
X71247000Y-80137000D02*
X73787000Y-80137000D01*
X73787000Y-80137000D02*
X73787000Y-77467000D01*
X71247000Y-77467000D02*
X33017000Y-77467000D01*
X76457000Y-77467000D02*
X73787000Y-77467000D01*
X73787000Y-92837000D02*
X73787000Y-95507000D01*
X73787000Y-92837000D02*
X35687000Y-92837000D01*
X35687000Y-92837000D02*
X35687000Y-95507000D01*
X71247000Y-80137000D02*
X71247000Y-77467000D01*
X71247000Y-80137000D02*
X35687000Y-80137000D01*
X35687000Y-80137000D02*
X35687000Y-77467000D01*
X33017000Y-77467000D02*
X33017000Y-95507000D01*
X33017000Y-95507000D02*
X76457000Y-95507000D01*
X76457000Y-95507000D02*
X76457000Y-77467000D01*
G04 #@! TO.C,U4*
X107763000Y-87138000D02*
G75*
G02X107763000Y-89138000I0J-1000000D01*
G01*
X107763000Y-89138000D02*
X107763000Y-90788000D01*
X107763000Y-90788000D02*
X125663000Y-90788000D01*
X125663000Y-90788000D02*
X125663000Y-85488000D01*
X125663000Y-85488000D02*
X107763000Y-85488000D01*
X107763000Y-85488000D02*
X107763000Y-87138000D01*
G04 #@! TO.C,C1*
D14*
X73366333Y-67921142D02*
X73318714Y-67968761D01*
X73175857Y-68016380D01*
X73080619Y-68016380D01*
X72937761Y-67968761D01*
X72842523Y-67873523D01*
X72794904Y-67778285D01*
X72747285Y-67587809D01*
X72747285Y-67444952D01*
X72794904Y-67254476D01*
X72842523Y-67159238D01*
X72937761Y-67064000D01*
X73080619Y-67016380D01*
X73175857Y-67016380D01*
X73318714Y-67064000D01*
X73366333Y-67111619D01*
X74318714Y-68016380D02*
X73747285Y-68016380D01*
X74032999Y-68016380D02*
X74032999Y-67016380D01*
X73937761Y-67159238D01*
X73842523Y-67254476D01*
X73747285Y-67302095D01*
G04 #@! TO.C,C2*
X80097333Y-92813142D02*
X80049714Y-92860761D01*
X79906857Y-92908380D01*
X79811619Y-92908380D01*
X79668761Y-92860761D01*
X79573523Y-92765523D01*
X79525904Y-92670285D01*
X79478285Y-92479809D01*
X79478285Y-92336952D01*
X79525904Y-92146476D01*
X79573523Y-92051238D01*
X79668761Y-91956000D01*
X79811619Y-91908380D01*
X79906857Y-91908380D01*
X80049714Y-91956000D01*
X80097333Y-92003619D01*
X80478285Y-92003619D02*
X80525904Y-91956000D01*
X80621142Y-91908380D01*
X80859238Y-91908380D01*
X80954476Y-91956000D01*
X81002095Y-92003619D01*
X81049714Y-92098857D01*
X81049714Y-92194095D01*
X81002095Y-92336952D01*
X80430666Y-92908380D01*
X81049714Y-92908380D01*
G04 #@! TO.C,D1*
X82573904Y-68143380D02*
X82573904Y-67143380D01*
X82811999Y-67143380D01*
X82954857Y-67191000D01*
X83050095Y-67286238D01*
X83097714Y-67381476D01*
X83145333Y-67571952D01*
X83145333Y-67714809D01*
X83097714Y-67905285D01*
X83050095Y-68000523D01*
X82954857Y-68095761D01*
X82811999Y-68143380D01*
X82573904Y-68143380D01*
X84097714Y-68143380D02*
X83526285Y-68143380D01*
X83811999Y-68143380D02*
X83811999Y-67143380D01*
X83716761Y-67286238D01*
X83621523Y-67381476D01*
X83526285Y-67429095D01*
G04 #@! TO.C,D2*
X99464904Y-67889380D02*
X99464904Y-66889380D01*
X99702999Y-66889380D01*
X99845857Y-66937000D01*
X99941095Y-67032238D01*
X99988714Y-67127476D01*
X100036333Y-67317952D01*
X100036333Y-67460809D01*
X99988714Y-67651285D01*
X99941095Y-67746523D01*
X99845857Y-67841761D01*
X99702999Y-67889380D01*
X99464904Y-67889380D01*
X100417285Y-66984619D02*
X100464904Y-66937000D01*
X100560142Y-66889380D01*
X100798238Y-66889380D01*
X100893476Y-66937000D01*
X100941095Y-66984619D01*
X100988714Y-67079857D01*
X100988714Y-67175095D01*
X100941095Y-67317952D01*
X100369666Y-67889380D01*
X100988714Y-67889380D01*
G04 #@! TO.C,D3*
X62634904Y-68016380D02*
X62634904Y-67016380D01*
X62872999Y-67016380D01*
X63015857Y-67064000D01*
X63111095Y-67159238D01*
X63158714Y-67254476D01*
X63206333Y-67444952D01*
X63206333Y-67587809D01*
X63158714Y-67778285D01*
X63111095Y-67873523D01*
X63015857Y-67968761D01*
X62872999Y-68016380D01*
X62634904Y-68016380D01*
X63539666Y-67016380D02*
X64158714Y-67016380D01*
X63825380Y-67397333D01*
X63968238Y-67397333D01*
X64063476Y-67444952D01*
X64111095Y-67492571D01*
X64158714Y-67587809D01*
X64158714Y-67825904D01*
X64111095Y-67921142D01*
X64063476Y-67968761D01*
X63968238Y-68016380D01*
X63682523Y-68016380D01*
X63587285Y-67968761D01*
X63539666Y-67921142D01*
G04 #@! TO.C,D4*
X91082904Y-68016380D02*
X91082904Y-67016380D01*
X91320999Y-67016380D01*
X91463857Y-67064000D01*
X91559095Y-67159238D01*
X91606714Y-67254476D01*
X91654333Y-67444952D01*
X91654333Y-67587809D01*
X91606714Y-67778285D01*
X91559095Y-67873523D01*
X91463857Y-67968761D01*
X91320999Y-68016380D01*
X91082904Y-68016380D01*
X92511476Y-67349714D02*
X92511476Y-68016380D01*
X92273380Y-66968761D02*
X92035285Y-67683047D01*
X92654333Y-67683047D01*
G04 #@! TO.C,D5*
X38377904Y-67762380D02*
X38377904Y-66762380D01*
X38615999Y-66762380D01*
X38758857Y-66810000D01*
X38854095Y-66905238D01*
X38901714Y-67000476D01*
X38949333Y-67190952D01*
X38949333Y-67333809D01*
X38901714Y-67524285D01*
X38854095Y-67619523D01*
X38758857Y-67714761D01*
X38615999Y-67762380D01*
X38377904Y-67762380D01*
X39854095Y-66762380D02*
X39377904Y-66762380D01*
X39330285Y-67238571D01*
X39377904Y-67190952D01*
X39473142Y-67143333D01*
X39711238Y-67143333D01*
X39806476Y-67190952D01*
X39854095Y-67238571D01*
X39901714Y-67333809D01*
X39901714Y-67571904D01*
X39854095Y-67667142D01*
X39806476Y-67714761D01*
X39711238Y-67762380D01*
X39473142Y-67762380D01*
X39377904Y-67714761D01*
X39330285Y-67667142D01*
G04 #@! TO.C,J1*
D15*
X30448333Y-48434761D02*
X30448333Y-49863333D01*
X30353095Y-50149047D01*
X30162619Y-50339523D01*
X29876904Y-50434761D01*
X29686428Y-50434761D01*
X32448333Y-50434761D02*
X31305476Y-50434761D01*
X31876904Y-50434761D02*
X31876904Y-48434761D01*
X31686428Y-48720476D01*
X31495952Y-48910952D01*
X31305476Y-49006190D01*
G04 #@! TO.C,J2*
X53562333Y-47926761D02*
X53562333Y-49355333D01*
X53467095Y-49641047D01*
X53276619Y-49831523D01*
X52990904Y-49926761D01*
X52800428Y-49926761D01*
X54419476Y-48117238D02*
X54514714Y-48022000D01*
X54705190Y-47926761D01*
X55181380Y-47926761D01*
X55371857Y-48022000D01*
X55467095Y-48117238D01*
X55562333Y-48307714D01*
X55562333Y-48498190D01*
X55467095Y-48783904D01*
X54324238Y-49926761D01*
X55562333Y-49926761D01*
G04 #@! TO.C,J3*
D14*
X50974666Y-67016380D02*
X50974666Y-67730666D01*
X50927047Y-67873523D01*
X50831809Y-67968761D01*
X50688952Y-68016380D01*
X50593714Y-68016380D01*
X51355619Y-67016380D02*
X51974666Y-67016380D01*
X51641333Y-67397333D01*
X51784190Y-67397333D01*
X51879428Y-67444952D01*
X51927047Y-67492571D01*
X51974666Y-67587809D01*
X51974666Y-67825904D01*
X51927047Y-67921142D01*
X51879428Y-67968761D01*
X51784190Y-68016380D01*
X51498476Y-68016380D01*
X51403238Y-67968761D01*
X51355619Y-67921142D01*
G04 #@! TO.C,R1*
X89876333Y-91892380D02*
X89542999Y-91416190D01*
X89304904Y-91892380D02*
X89304904Y-90892380D01*
X89685857Y-90892380D01*
X89781095Y-90940000D01*
X89828714Y-90987619D01*
X89876333Y-91082857D01*
X89876333Y-91225714D01*
X89828714Y-91320952D01*
X89781095Y-91368571D01*
X89685857Y-91416190D01*
X89304904Y-91416190D01*
X90828714Y-91892380D02*
X90257285Y-91892380D01*
X90542999Y-91892380D02*
X90542999Y-90892380D01*
X90447761Y-91035238D01*
X90352523Y-91130476D01*
X90257285Y-91178095D01*
G04 #@! TO.C,R2*
X88844380Y-58086666D02*
X88368190Y-58420000D01*
X88844380Y-58658095D02*
X87844380Y-58658095D01*
X87844380Y-58277142D01*
X87891999Y-58181904D01*
X87939619Y-58134285D01*
X88034857Y-58086666D01*
X88177714Y-58086666D01*
X88272952Y-58134285D01*
X88320571Y-58181904D01*
X88368190Y-58277142D01*
X88368190Y-58658095D01*
X87939619Y-57705714D02*
X87892000Y-57658095D01*
X87844380Y-57562857D01*
X87844380Y-57324761D01*
X87892000Y-57229523D01*
X87939619Y-57181904D01*
X88034857Y-57134285D01*
X88130095Y-57134285D01*
X88272952Y-57181904D01*
X88844380Y-57753333D01*
X88844380Y-57134285D01*
G04 #@! TO.C,R3*
X90003333Y-77668380D02*
X89669999Y-77192190D01*
X89431904Y-77668380D02*
X89431904Y-76668380D01*
X89812857Y-76668380D01*
X89908095Y-76716000D01*
X89955714Y-76763619D01*
X90003333Y-76858857D01*
X90003333Y-77001714D01*
X89955714Y-77096952D01*
X89908095Y-77144571D01*
X89812857Y-77192190D01*
X89431904Y-77192190D01*
X90336666Y-76668380D02*
X90955714Y-76668380D01*
X90622380Y-77049333D01*
X90765238Y-77049333D01*
X90860476Y-77096952D01*
X90908095Y-77144571D01*
X90955714Y-77239809D01*
X90955714Y-77477904D01*
X90908095Y-77573142D01*
X90860476Y-77620761D01*
X90765238Y-77668380D01*
X90479523Y-77668380D01*
X90384285Y-77620761D01*
X90336666Y-77573142D01*
G04 #@! TO.C,R4*
X80589380Y-58086666D02*
X80113190Y-58420000D01*
X80589380Y-58658095D02*
X79589380Y-58658095D01*
X79589380Y-58277142D01*
X79636999Y-58181904D01*
X79684619Y-58134285D01*
X79779857Y-58086666D01*
X79922714Y-58086666D01*
X80017952Y-58134285D01*
X80065571Y-58181904D01*
X80113190Y-58277142D01*
X80113190Y-58658095D01*
X79922714Y-57229523D02*
X80589380Y-57229523D01*
X79541761Y-57467619D02*
X80256047Y-57705714D01*
X80256047Y-57086666D01*
G04 #@! TO.C,R5*
X89749333Y-84653380D02*
X89415999Y-84177190D01*
X89177904Y-84653380D02*
X89177904Y-83653380D01*
X89558857Y-83653380D01*
X89654095Y-83701000D01*
X89701714Y-83748619D01*
X89749333Y-83843857D01*
X89749333Y-83986714D01*
X89701714Y-84081952D01*
X89654095Y-84129571D01*
X89558857Y-84177190D01*
X89177904Y-84177190D01*
X90654095Y-83653380D02*
X90177904Y-83653380D01*
X90130285Y-84129571D01*
X90177904Y-84081952D01*
X90273142Y-84034333D01*
X90511238Y-84034333D01*
X90606476Y-84081952D01*
X90654095Y-84129571D01*
X90701714Y-84224809D01*
X90701714Y-84462904D01*
X90654095Y-84558142D01*
X90606476Y-84605761D01*
X90511238Y-84653380D01*
X90273142Y-84653380D01*
X90177904Y-84605761D01*
X90130285Y-84558142D01*
G04 #@! TO.C,SW2*
D15*
X107362523Y-74421666D02*
X107457761Y-74135952D01*
X107457761Y-73659761D01*
X107362523Y-73469285D01*
X107267285Y-73374047D01*
X107076809Y-73278809D01*
X106886333Y-73278809D01*
X106695857Y-73374047D01*
X106600619Y-73469285D01*
X106505380Y-73659761D01*
X106410142Y-74040714D01*
X106314904Y-74231190D01*
X106219666Y-74326428D01*
X106029190Y-74421666D01*
X105838714Y-74421666D01*
X105648238Y-74326428D01*
X105552999Y-74231190D01*
X105457761Y-74040714D01*
X105457761Y-73564523D01*
X105552999Y-73278809D01*
X105457761Y-72612142D02*
X107457761Y-72135952D01*
X106029190Y-71754999D01*
X107457761Y-71374047D01*
X105457761Y-70897857D01*
X105648238Y-70231190D02*
X105553000Y-70135952D01*
X105457761Y-69945476D01*
X105457761Y-69469285D01*
X105553000Y-69278809D01*
X105648238Y-69183571D01*
X105838714Y-69088333D01*
X106029190Y-69088333D01*
X106314904Y-69183571D01*
X107457761Y-70326428D01*
X107457761Y-69088333D01*
G04 #@! TO.C,U1*
X97456761Y-58800809D02*
X99075809Y-58800809D01*
X99266285Y-58705571D01*
X99361523Y-58610333D01*
X99456761Y-58419857D01*
X99456761Y-58038904D01*
X99361523Y-57848428D01*
X99266285Y-57753190D01*
X99075809Y-57657952D01*
X97456761Y-57657952D01*
X99456761Y-55657952D02*
X99456761Y-56800809D01*
X99456761Y-56229380D02*
X97456761Y-56229380D01*
X97742476Y-56419857D01*
X97932952Y-56610333D01*
X98028190Y-56800809D01*
G04 #@! TO.C,U2*
D14*
X114502380Y-57951904D02*
X115311904Y-57951904D01*
X115407142Y-57904285D01*
X115454761Y-57856666D01*
X115502380Y-57761428D01*
X115502380Y-57570952D01*
X115454761Y-57475714D01*
X115407142Y-57428095D01*
X115311904Y-57380476D01*
X114502380Y-57380476D01*
X114597619Y-56951904D02*
X114550000Y-56904285D01*
X114502380Y-56809047D01*
X114502380Y-56570952D01*
X114550000Y-56475714D01*
X114597619Y-56428095D01*
X114692857Y-56380476D01*
X114788095Y-56380476D01*
X114930952Y-56428095D01*
X115502380Y-56999523D01*
X115502380Y-56380476D01*
G04 #@! TO.C,U3*
D15*
X32004190Y-96567761D02*
X32004190Y-98186809D01*
X32099428Y-98377285D01*
X32194666Y-98472523D01*
X32385142Y-98567761D01*
X32766095Y-98567761D01*
X32956571Y-98472523D01*
X33051809Y-98377285D01*
X33147047Y-98186809D01*
X33147047Y-96567761D01*
X33908952Y-96567761D02*
X35147047Y-96567761D01*
X34480380Y-97329666D01*
X34766095Y-97329666D01*
X34956571Y-97424904D01*
X35051809Y-97520142D01*
X35147047Y-97710619D01*
X35147047Y-98186809D01*
X35051809Y-98377285D01*
X34956571Y-98472523D01*
X34766095Y-98567761D01*
X34194666Y-98567761D01*
X34004190Y-98472523D01*
X33908952Y-98377285D01*
G04 #@! TO.C,U4*
X98853761Y-89407809D02*
X100472809Y-89407809D01*
X100663285Y-89312571D01*
X100758523Y-89217333D01*
X100853761Y-89026857D01*
X100853761Y-88645904D01*
X100758523Y-88455428D01*
X100663285Y-88360190D01*
X100472809Y-88264952D01*
X98853761Y-88264952D01*
X99520428Y-86455428D02*
X100853761Y-86455428D01*
X98758523Y-86931619D02*
X100187095Y-87407809D01*
X100187095Y-86169714D01*
G04 #@! TD*
M02*
