G04 #@! TF.GenerationSoftware,KiCad,Pcbnew,(5.0.0)*
G04 #@! TF.CreationDate,2021-01-29T15:29:07+01:00*
G04 #@! TF.ProjectId,Programmateur_ATtiny85_02,50726F6772616D6D61746575725F4154,rev?*
G04 #@! TF.SameCoordinates,Original*
G04 #@! TF.FileFunction,Legend,Bot*
G04 #@! TF.FilePolarity,Positive*
%FSLAX46Y46*%
G04 Gerber Fmt 4.6, Leading zero omitted, Abs format (unit mm)*
G04 Created by KiCad (PCBNEW (5.0.0)) date 01/29/21 15:29:07*
%MOMM*%
%LPD*%
G01*
G04 APERTURE LIST*
%ADD10C,1.000000*%
G04 APERTURE END LIST*
D10*
X67688619Y-52609523D02*
X67688619Y-48609523D01*
X66736238Y-48609523D01*
X66164809Y-48800000D01*
X65783857Y-49180952D01*
X65593380Y-49561904D01*
X65402904Y-50323809D01*
X65402904Y-50895238D01*
X65593380Y-51657142D01*
X65783857Y-52038095D01*
X66164809Y-52419047D01*
X66736238Y-52609523D01*
X67688619Y-52609523D01*
X63688619Y-48609523D02*
X63688619Y-51847619D01*
X63498142Y-52228571D01*
X63307666Y-52419047D01*
X62926714Y-52609523D01*
X62164809Y-52609523D01*
X61783857Y-52419047D01*
X61593380Y-52228571D01*
X61402904Y-51847619D01*
X61402904Y-48609523D01*
X58164809Y-50514285D02*
X59498142Y-50514285D01*
X59498142Y-52609523D02*
X59498142Y-48609523D01*
X57593380Y-48609523D01*
X55307666Y-48609523D02*
X54545761Y-48609523D01*
X54164809Y-48800000D01*
X53783857Y-49180952D01*
X53593380Y-49942857D01*
X53593380Y-51276190D01*
X53783857Y-52038095D01*
X54164809Y-52419047D01*
X54545761Y-52609523D01*
X55307666Y-52609523D01*
X55688619Y-52419047D01*
X56069571Y-52038095D01*
X56260047Y-51276190D01*
X56260047Y-49942857D01*
X56069571Y-49180952D01*
X55688619Y-48800000D01*
X55307666Y-48609523D01*
X51879095Y-48609523D02*
X51879095Y-51847619D01*
X51688619Y-52228571D01*
X51498142Y-52419047D01*
X51117190Y-52609523D01*
X50355285Y-52609523D01*
X49974333Y-52419047D01*
X49783857Y-52228571D01*
X49593380Y-51847619D01*
X49593380Y-48609523D01*
X45402904Y-52609523D02*
X46736238Y-50704761D01*
X47688619Y-52609523D02*
X47688619Y-48609523D01*
X46164809Y-48609523D01*
X45783857Y-48800000D01*
X45593380Y-48990476D01*
X45402904Y-49371428D01*
X45402904Y-49942857D01*
X45593380Y-50323809D01*
X45783857Y-50514285D01*
X46164809Y-50704761D01*
X47688619Y-50704761D01*
X43688619Y-52609523D02*
X43688619Y-48609523D01*
X42355285Y-51466666D01*
X41021952Y-48609523D01*
X41021952Y-52609523D01*
X38355285Y-48609523D02*
X37593380Y-48609523D01*
X37212428Y-48800000D01*
X36831476Y-49180952D01*
X36641000Y-49942857D01*
X36641000Y-51276190D01*
X36831476Y-52038095D01*
X37212428Y-52419047D01*
X37593380Y-52609523D01*
X38355285Y-52609523D01*
X38736238Y-52419047D01*
X39117190Y-52038095D01*
X39307666Y-51276190D01*
X39307666Y-49942857D01*
X39117190Y-49180952D01*
X38736238Y-48800000D01*
X38355285Y-48609523D01*
X34926714Y-52609523D02*
X34926714Y-48609523D01*
X32641000Y-52609523D01*
X32641000Y-48609523D01*
X31307666Y-48609523D02*
X29021952Y-48609523D01*
X30164809Y-52609523D02*
X30164809Y-48609523D01*
X123030380Y-44410571D02*
X123220857Y-44601047D01*
X123792285Y-44791523D01*
X124173238Y-44791523D01*
X124744666Y-44601047D01*
X125125619Y-44220095D01*
X125316095Y-43839142D01*
X125506571Y-43077238D01*
X125506571Y-42505809D01*
X125316095Y-41743904D01*
X125125619Y-41362952D01*
X124744666Y-40982000D01*
X124173238Y-40791523D01*
X123792285Y-40791523D01*
X123220857Y-40982000D01*
X123030380Y-41172476D01*
X120744666Y-44791523D02*
X121125619Y-44601047D01*
X121316095Y-44220095D01*
X121316095Y-40791523D01*
X117506571Y-44791523D02*
X117506571Y-42696285D01*
X117697047Y-42315333D01*
X118077999Y-42124857D01*
X118839904Y-42124857D01*
X119220857Y-42315333D01*
X117506571Y-44601047D02*
X117887523Y-44791523D01*
X118839904Y-44791523D01*
X119220857Y-44601047D01*
X119411333Y-44220095D01*
X119411333Y-43839142D01*
X119220857Y-43458190D01*
X118839904Y-43267714D01*
X117887523Y-43267714D01*
X117506571Y-43077238D01*
X113887523Y-42124857D02*
X113887523Y-44791523D01*
X115601809Y-42124857D02*
X115601809Y-44220095D01*
X115411333Y-44601047D01*
X115030380Y-44791523D01*
X114458952Y-44791523D01*
X114077999Y-44601047D01*
X113887523Y-44410571D01*
X110268476Y-44791523D02*
X110268476Y-40791523D01*
X110268476Y-44601047D02*
X110649428Y-44791523D01*
X111411333Y-44791523D01*
X111792285Y-44601047D01*
X111982761Y-44410571D01*
X112173238Y-44029619D01*
X112173238Y-42886761D01*
X111982761Y-42505809D01*
X111792285Y-42315333D01*
X111411333Y-42124857D01*
X110649428Y-42124857D01*
X110268476Y-42315333D01*
X106839904Y-44601047D02*
X107220857Y-44791523D01*
X107982761Y-44791523D01*
X108363714Y-44601047D01*
X108554190Y-44220095D01*
X108554190Y-42696285D01*
X108363714Y-42315333D01*
X107982761Y-42124857D01*
X107220857Y-42124857D01*
X106839904Y-42315333D01*
X106649428Y-42696285D01*
X106649428Y-43077238D01*
X108554190Y-43458190D01*
M02*
